<svg width="21" height="20" viewBox="0 0 21 20" fill="none" xmlns="http://www.w3.org/2000/svg">
<path d="M18.2451 0H2.34153C1.14424 0 0.172852 0.959821 0.172852 2.14286V17.8571C0.172852 19.0402 1.14424 20 2.34153 20H18.2451C19.4424 20 20.4138 19.0402 20.4138 17.8571V2.14286C20.4138 0.959821 19.4424 0 18.2451 0ZM16.0358 7.08929C16.0448 7.21429 16.0448 7.34375 16.0448 7.46875C16.0448 11.3393 13.0629 15.7991 7.61412 15.7991C5.93339 15.7991 4.37466 15.317 3.06442 14.4866C3.30388 14.5134 3.5343 14.5223 3.77827 14.5223C5.16532 14.5223 6.43942 14.058 7.45598 13.2723C6.15478 13.2455 5.06141 12.4018 4.68641 11.2411C5.14273 11.308 5.55388 11.308 6.02376 11.1875C4.66833 10.9152 3.65177 9.73661 3.65177 8.3125V8.27679C4.04484 8.49554 4.50568 8.62946 4.98912 8.64732C4.58268 8.38019 4.2495 8.0178 4.0193 7.59248C3.7891 7.16716 3.66904 6.69214 3.66984 6.20982C3.66984 5.66518 3.81442 5.16518 4.07195 4.73214C5.53129 6.50893 7.72255 7.66964 10.1804 7.79464C9.7602 5.80804 11.2647 4.19643 13.0719 4.19643C13.9259 4.19643 14.6939 4.54911 15.2361 5.12054C15.9048 4.99554 16.5463 4.75 17.1156 4.41518C16.8942 5.09375 16.4289 5.66518 15.8144 6.02679C16.4108 5.96429 16.9891 5.79911 17.5223 5.57143C17.1201 6.15625 16.6141 6.67411 16.0358 7.08929Z" fill="white"/>
</svg>
