<svg width="33" height="36" viewBox="0 0 33 36" fill="none" xmlns="http://www.w3.org/2000/svg">
<path d="M29.3246 0.0162048H4.12379C2.22657 0.0162048 0.687317 1.72383 0.687317 3.82858V31.786C0.687317 33.8907 2.22657 35.5984 4.12379 35.5984H29.3246C31.2218 35.5984 32.7611 33.8907 32.7611 31.786V3.82858C32.7611 1.72383 31.2218 0.0162048 29.3246 0.0162048ZM20.5401 30.4914C19.9387 30.6105 19.7168 30.1975 19.7168 29.856C19.7168 29.4271 19.7311 27.235 19.7311 25.4638C19.7311 24.2248 19.3588 23.4385 18.9221 23.0255C21.571 22.6998 24.3632 22.2948 24.3632 17.2195C24.3632 15.774 23.8978 15.0513 23.1389 14.122C23.2606 13.7805 23.6687 12.3746 23.0172 10.5479C22.0221 10.2064 19.7454 11.9696 19.7454 11.9696C18.8004 11.6757 17.7766 11.5248 16.7671 11.5248C15.7577 11.5248 14.7339 11.6757 13.7889 11.9696C13.7889 11.9696 11.5122 10.2064 10.5171 10.5479C9.86556 12.3667 10.2665 13.7725 10.3954 14.122C9.63646 15.0513 9.2785 15.774 9.2785 17.2195C9.2785 22.2709 11.9489 22.6998 14.5979 23.0255C14.2542 23.367 13.9464 23.9547 13.839 24.7966C13.1588 25.1382 11.4191 25.7259 10.381 23.6926C9.72954 22.4377 8.55541 22.3345 8.55541 22.3345C7.3956 22.3186 8.47666 23.1446 8.47666 23.1446C9.24986 23.5417 9.79397 25.0667 9.79397 25.0667C10.4884 27.4256 13.8103 26.6313 13.8103 26.6313C13.8103 27.7353 13.8247 29.5303 13.8247 29.856C13.8247 30.1975 13.6099 30.6105 13.0013 30.4914C8.27619 28.7361 4.96859 23.7482 4.96859 17.9185C4.96859 10.6273 9.99443 5.09143 16.5667 5.09143C23.1389 5.09143 28.4655 10.6273 28.4655 17.9185C28.4726 23.7482 25.2653 28.744 20.5401 30.4914ZM13.5168 25.6385C13.3808 25.6703 13.2519 25.6068 13.2376 25.5035C13.2233 25.3844 13.3164 25.2811 13.4524 25.2493C13.5884 25.2335 13.7173 25.297 13.7316 25.4003C13.7531 25.5035 13.66 25.6068 13.5168 25.6385ZM12.8367 25.567C12.8367 25.6703 12.7293 25.7577 12.5861 25.7577C12.4286 25.7735 12.3212 25.6862 12.3212 25.567C12.3212 25.4638 12.4286 25.3764 12.5718 25.3764C12.7078 25.3605 12.8367 25.4479 12.8367 25.567ZM11.8559 25.4797C11.8272 25.5829 11.684 25.6306 11.5623 25.5829C11.4263 25.5512 11.3332 25.432 11.3619 25.3288C11.3905 25.2255 11.5337 25.1779 11.6554 25.2096C11.7986 25.2573 11.8916 25.3764 11.8559 25.4797ZM10.9753 25.0508C10.9108 25.1382 10.7748 25.1223 10.6674 25.0031C10.56 24.8999 10.5314 24.749 10.603 24.6775C10.6674 24.5901 10.8034 24.606 10.9108 24.7251C11.0039 24.8284 11.0397 24.9872 10.9753 25.0508ZM10.3238 24.328C10.2593 24.3757 10.1376 24.328 10.0589 24.2089C9.98011 24.0898 9.98011 23.9547 10.0589 23.8991C10.1376 23.8277 10.2593 23.8832 10.3238 24.0024C10.4025 24.1215 10.4025 24.2645 10.3238 24.328V24.328ZM9.8584 23.5576C9.79397 23.6291 9.68658 23.5894 9.60783 23.51C9.52907 23.4067 9.51476 23.2876 9.57919 23.232C9.64362 23.1605 9.75101 23.2002 9.82977 23.2796C9.90852 23.3829 9.92284 23.502 9.8584 23.5576ZM9.37873 22.9699C9.35009 23.0413 9.25702 23.0572 9.17827 23.0016C9.0852 22.954 9.04224 22.8666 9.07088 22.7951C9.09952 22.7475 9.17827 22.7236 9.27134 22.7634C9.36441 22.819 9.40737 22.9063 9.37873 22.9699Z" fill="white"/>
</svg>
