<svg width="32" height="36" viewBox="0 0 32 36" fill="none" xmlns="http://www.w3.org/2000/svg">
<path d="M29.4239 0.0162048H2.25631C1.01145 0.0162048 0 1.15398 0 2.55071V32.6351C0 34.0319 1.01145 35.1696 2.25631 35.1696H29.4239C30.6688 35.1696 31.6873 34.0319 31.6873 32.6351V2.55071C31.6873 1.15398 30.6688 0.0162048 29.4239 0.0162048ZM9.57692 30.1477H4.88041V13.3714H9.584V30.1477H9.57692ZM7.22867 11.0801C5.72211 11.0801 4.50554 9.72264 4.50554 8.05912C4.50554 6.39561 5.72211 5.03813 7.22867 5.03813C8.72816 5.03813 9.9518 6.39561 9.9518 8.05912C9.9518 9.73048 8.73523 11.0801 7.22867 11.0801V11.0801ZM27.1818 30.1477H22.4853V21.9871C22.4853 20.0411 22.4499 17.538 20.0451 17.538C17.5978 17.538 17.2229 19.6566 17.2229 21.8459V30.1477H12.5264V13.3714H17.0319V15.6626H17.0956C17.7251 14.3444 19.2599 12.9555 21.5445 12.9555C26.2976 12.9555 27.1818 16.4316 27.1818 20.9513V30.1477V30.1477Z" fill="white"/>
</svg>
